# Blender v2.76 (sub 0) OBJ File: ''
# www.blender.org
mtllib chance_icosahedron.mtl
o Icosphere
v 0.000000 -0.625000 -0.000000
v 0.452250 -0.279509 0.328575
v -0.172741 -0.279509 0.531650
v 0.452250 -0.279509 -0.328575
v -0.559015 -0.279509 -0.000000
v -0.172741 -0.279509 -0.531650
v 0.559015 0.279509 0.000000
v 0.172741 0.279509 0.531650
v -0.452250 0.279509 0.328575
v -0.452250 0.279509 -0.328575
v 0.172741 0.279509 -0.531650
v 0.000000 0.625000 0.000000
vt 0.500000 1.000000
vt -0.000000 0.000000
vt 1.000000 0.000000
vn 0.187600 -0.794700 0.577400
vn 0.607100 -0.794700 -0.000000
vn -0.491100 -0.794700 0.356800
vn -0.491100 -0.794700 -0.356800
vn 0.187600 -0.794700 -0.577400
vn 0.982200 -0.187600 -0.000000
vn 0.303500 -0.187600 0.934200
vn -0.794600 -0.187600 0.577400
vn -0.794600 -0.187600 -0.577400
vn 0.303500 -0.187600 -0.934200
vn 0.794600 0.187600 0.577400
vn -0.303500 0.187600 0.934200
vn -0.982200 0.187600 0.000000
vn -0.303500 0.187600 -0.934200
vn 0.794600 0.187600 -0.577400
vn 0.491100 0.794700 0.356800
vn -0.187600 0.794700 0.577400
vn -0.607100 0.794700 0.000000
vn -0.187600 0.794700 -0.577400
vn 0.491100 0.794700 -0.356800
usemtl chance_icosahedron
s off
f 1/1/1 2/2/1 3/3/1
f 2/3/2 1/1/2 4/2/2
f 1/1/3 3/2/3 5/3/3
f 1/1/4 5/2/4 6/3/4
f 1/1/5 6/2/5 4/3/5
f 2/2/6 4/3/6 7/1/6
f 3/2/7 2/3/7 8/1/7
f 5/2/8 3/3/8 9/1/8
f 6/2/9 5/3/9 10/1/9
f 4/2/10 6/3/10 11/1/10
f 2/1/11 7/2/11 8/3/11
f 3/1/12 8/2/12 9/3/12
f 5/1/13 9/2/13 10/3/13
f 6/1/14 10/2/14 11/3/14
f 4/1/15 11/2/15 7/3/15
f 8/2/16 7/3/16 12/1/16
f 9/2/17 8/3/17 12/1/17
f 10/2/18 9/3/18 12/1/18
f 11/2/19 10/3/19 12/1/19
f 7/2/20 11/3/20 12/1/20
