# Blender 3.4.1
# www.blender.org
mtllib chance_icosahedron.mtl
o Icosphere
v 0.000000 -0.468750 -0.000000
v 0.339188 -0.209632 0.246431
v -0.129556 -0.209632 0.398737
v 0.339188 -0.209632 -0.246431
v -0.419261 -0.209632 -0.000000
v -0.129556 -0.209632 -0.398738
v 0.419261 0.209632 0.000000
v 0.129556 0.209632 0.398738
v -0.339188 0.209632 0.246431
v -0.339188 0.209632 -0.246431
v 0.129556 0.209632 -0.398737
v 0.000000 0.468750 0.000000
vn 0.1876 -0.7947 0.5774
vn 0.6071 -0.7947 -0.0000
vn -0.4911 -0.7947 0.3568
vn -0.4911 -0.7947 -0.3568
vn 0.1876 -0.7947 -0.5774
vn 0.9822 -0.1876 -0.0000
vn 0.3035 -0.1876 0.9342
vn -0.7946 -0.1876 0.5774
vn -0.7946 -0.1876 -0.5774
vn 0.3035 -0.1876 -0.9342
vn 0.7946 0.1876 0.5774
vn -0.3035 0.1876 0.9342
vn -0.9822 0.1876 -0.0000
vn -0.3035 0.1876 -0.9342
vn 0.7946 0.1876 -0.5774
vn 0.4911 0.7947 0.3568
vn -0.1876 0.7947 0.5774
vn -0.6071 0.7947 -0.0000
vn -0.1876 0.7947 -0.5774
vn 0.4911 0.7947 -0.3568
vt 0.500000 1.000000
vt -0.000000 0.000000
vt 1.000000 0.000000
vt 0.500000 1.000000
vt -0.000000 0.000000
vt 1.000000 0.000000
vt 0.500000 1.000000
vt 1.000000 0.000000
vt -0.000000 0.000000
vt 0.500000 1.000000
vt -0.000000 0.000000
vt 1.000000 0.000000
vt 0.500000 1.000000
vt -0.000000 0.000000
vt 1.000000 0.000000
vt 0.500000 1.000000
vt 0.500000 1.000000
vt 1.000000 0.000000
vt -0.000000 0.000000
vt 0.500000 1.000000
vt -0.000000 0.000000
vt 1.000000 0.000000
vt 0.500000 1.000000
vt -0.000000 0.000000
vt 1.000000 0.000000
vt 0.500000 1.000000
vt -0.000000 0.000000
vt 1.000000 0.000000
vt 0.500000 1.000000
vt -0.000000 0.000000
vt 1.000000 0.000000
vt 0.500000 1.000000
s 0
usemtl chance_icosahedron.001
f 1/1/1 2/2/1 3/6/1
f 2/3/2 1/1/2 4/9/2
f 1/1/3 3/5/3 5/12/3
f 1/1/4 5/11/4 6/15/4
f 1/1/5 6/14/5 4/8/5
f 2/2/6 4/8/6 7/17/6
f 3/5/7 2/3/7 8/20/7
f 5/11/8 3/6/8 9/23/8
f 6/14/9 5/12/9 10/26/9
f 4/9/10 6/15/10 11/29/10
f 2/4/11 7/19/11 8/22/11
f 3/7/12 8/21/12 9/25/12
f 5/13/13 9/24/13 10/28/13
f 6/16/14 10/27/14 11/31/14
f 4/10/15 11/30/15 7/18/15
f 8/21/16 7/18/16 12/32/16
f 9/24/17 8/22/17 12/32/17
f 10/27/18 9/25/18 12/32/18
f 11/30/19 10/28/19 12/32/19
f 7/19/20 11/31/20 12/32/20
